<mxfile host="Electron" agent="Mozilla/5.0 (X11; Linux x86_64) AppleWebKit/537.36 (KHTML, like Gecko) draw.io/24.7.8 Chrome/128.0.6613.84 Electron/32.0.2 Safari/537.36" version="24.7.8">
  <diagram name="Page-1" id="KiQNG-5v_GEv6hN5VsIU">
    <mxGraphModel dx="1420" dy="824" grid="1" gridSize="10" guides="1" tooltips="1" connect="1" arrows="1" fold="1" page="1" pageScale="1" pageWidth="827" pageHeight="1169" math="0" shadow="0">
      <root>
        <mxCell id="0" />
        <mxCell id="1" parent="0" />
        <mxCell id="ipIM1DIU9-tNFwy6F7MK-1" value="" style="endArrow=none;html=1;rounded=0;strokeWidth=12;" parent="1" edge="1">
          <mxGeometry width="50" height="50" relative="1" as="geometry">
            <mxPoint x="120" y="243" as="sourcePoint" />
            <mxPoint x="720" y="243" as="targetPoint" />
          </mxGeometry>
        </mxCell>
        <mxCell id="ipIM1DIU9-tNFwy6F7MK-3" value="" style="endArrow=none;html=1;rounded=0;strokeWidth=12;" parent="1" edge="1">
          <mxGeometry width="50" height="50" relative="1" as="geometry">
            <mxPoint x="120" y="681" as="sourcePoint" />
            <mxPoint x="322" y="680" as="targetPoint" />
          </mxGeometry>
        </mxCell>
        <mxCell id="ipIM1DIU9-tNFwy6F7MK-4" value="" style="endArrow=none;html=1;rounded=0;strokeWidth=12;" parent="1" edge="1">
          <mxGeometry width="50" height="50" relative="1" as="geometry">
            <mxPoint x="321" y="884" as="sourcePoint" />
            <mxPoint x="321" y="674" as="targetPoint" />
          </mxGeometry>
        </mxCell>
        <mxCell id="ipIM1DIU9-tNFwy6F7MK-5" value="" style="endArrow=none;html=1;rounded=0;strokeWidth=12;" parent="1" edge="1">
          <mxGeometry width="50" height="50" relative="1" as="geometry">
            <mxPoint x="521" y="884" as="sourcePoint" />
            <mxPoint x="521" y="674" as="targetPoint" />
          </mxGeometry>
        </mxCell>
        <mxCell id="ipIM1DIU9-tNFwy6F7MK-6" value="" style="endArrow=none;html=1;rounded=0;strokeWidth=12;" parent="1" edge="1">
          <mxGeometry width="50" height="50" relative="1" as="geometry">
            <mxPoint x="521" y="680" as="sourcePoint" />
            <mxPoint x="720" y="680" as="targetPoint" />
          </mxGeometry>
        </mxCell>
        <mxCell id="ipIM1DIU9-tNFwy6F7MK-33" value="" style="group;fillColor=#99FF99;" parent="1" vertex="1" connectable="0">
          <mxGeometry x="340" y="673" width="162" height="60" as="geometry" />
        </mxCell>
        <mxCell id="ipIM1DIU9-tNFwy6F7MK-34" value="" style="rounded=0;whiteSpace=wrap;html=1;" parent="ipIM1DIU9-tNFwy6F7MK-33" vertex="1">
          <mxGeometry width="162" height="60" as="geometry" />
        </mxCell>
        <mxCell id="ipIM1DIU9-tNFwy6F7MK-35" value="" style="ellipse;whiteSpace=wrap;html=1;aspect=fixed;fillColor=#FFFF99;" parent="ipIM1DIU9-tNFwy6F7MK-33" vertex="1">
          <mxGeometry x="60" y="11" width="40" height="40" as="geometry" />
        </mxCell>
        <mxCell id="ipIM1DIU9-tNFwy6F7MK-36" value="" style="ellipse;whiteSpace=wrap;html=1;aspect=fixed;fillColor=#99FF99;" parent="ipIM1DIU9-tNFwy6F7MK-33" vertex="1">
          <mxGeometry x="110" y="11" width="40" height="40" as="geometry" />
        </mxCell>
        <mxCell id="ipIM1DIU9-tNFwy6F7MK-37" value="" style="ellipse;whiteSpace=wrap;html=1;aspect=fixed;fillColor=#FF9999;" parent="ipIM1DIU9-tNFwy6F7MK-33" vertex="1">
          <mxGeometry x="10" y="11" width="40" height="40" as="geometry" />
        </mxCell>
        <mxCell id="ipIM1DIU9-tNFwy6F7MK-38" value="" style="group;rotation=90;" parent="1" vertex="1" connectable="0">
          <mxGeometry x="167" y="547" width="162" height="60" as="geometry" />
        </mxCell>
        <mxCell id="ipIM1DIU9-tNFwy6F7MK-32" value="" style="group;fillColor=#99FF99;container=0;rotation=90;" parent="ipIM1DIU9-tNFwy6F7MK-38" vertex="1" connectable="0">
          <mxGeometry width="162" height="60" as="geometry" />
        </mxCell>
        <mxCell id="ipIM1DIU9-tNFwy6F7MK-28" value="" style="rounded=0;whiteSpace=wrap;html=1;container=0;rotation=90;" parent="ipIM1DIU9-tNFwy6F7MK-38" vertex="1">
          <mxGeometry width="162" height="60" as="geometry" />
        </mxCell>
        <mxCell id="ipIM1DIU9-tNFwy6F7MK-29" value="" style="ellipse;whiteSpace=wrap;html=1;aspect=fixed;fillColor=#FFFF99;container=0;rotation=90;" parent="ipIM1DIU9-tNFwy6F7MK-38" vertex="1">
          <mxGeometry x="60" y="9" width="40" height="40" as="geometry" />
        </mxCell>
        <mxCell id="ipIM1DIU9-tNFwy6F7MK-30" value="" style="ellipse;whiteSpace=wrap;html=1;aspect=fixed;fillColor=#99FF99;container=0;rotation=90;" parent="ipIM1DIU9-tNFwy6F7MK-38" vertex="1">
          <mxGeometry x="60" y="59" width="40" height="40" as="geometry" />
        </mxCell>
        <mxCell id="ipIM1DIU9-tNFwy6F7MK-31" value="" style="ellipse;whiteSpace=wrap;html=1;aspect=fixed;fillColor=#FF9999;container=0;rotation=90;" parent="ipIM1DIU9-tNFwy6F7MK-38" vertex="1">
          <mxGeometry x="60" y="-41" width="40" height="40" as="geometry" />
        </mxCell>
        <mxCell id="ipIM1DIU9-tNFwy6F7MK-40" value="" style="group;rotation=90;" parent="1" vertex="1" connectable="0">
          <mxGeometry x="507" y="317" width="162" height="60" as="geometry" />
        </mxCell>
        <mxCell id="ipIM1DIU9-tNFwy6F7MK-41" value="" style="group;fillColor=#99FF99;container=0;rotation=90;" parent="ipIM1DIU9-tNFwy6F7MK-40" vertex="1" connectable="0">
          <mxGeometry width="162" height="60" as="geometry" />
        </mxCell>
        <mxCell id="ipIM1DIU9-tNFwy6F7MK-42" value="" style="rounded=0;whiteSpace=wrap;html=1;container=0;rotation=90;" parent="ipIM1DIU9-tNFwy6F7MK-40" vertex="1">
          <mxGeometry width="162" height="60" as="geometry" />
        </mxCell>
        <mxCell id="ipIM1DIU9-tNFwy6F7MK-43" value="" style="ellipse;whiteSpace=wrap;html=1;aspect=fixed;fillColor=#FFFF99;container=0;rotation=90;" parent="ipIM1DIU9-tNFwy6F7MK-40" vertex="1">
          <mxGeometry x="60" y="9" width="40" height="40" as="geometry" />
        </mxCell>
        <mxCell id="ipIM1DIU9-tNFwy6F7MK-44" value="" style="ellipse;whiteSpace=wrap;html=1;aspect=fixed;fillColor=#99FF99;container=0;rotation=90;" parent="ipIM1DIU9-tNFwy6F7MK-40" vertex="1">
          <mxGeometry x="60" y="59" width="40" height="40" as="geometry" />
        </mxCell>
        <mxCell id="ipIM1DIU9-tNFwy6F7MK-45" value="" style="ellipse;whiteSpace=wrap;html=1;aspect=fixed;fillColor=#FF9999;container=0;rotation=90;" parent="ipIM1DIU9-tNFwy6F7MK-40" vertex="1">
          <mxGeometry x="60" y="-41" width="40" height="40" as="geometry" />
        </mxCell>
        <mxCell id="ipIM1DIU9-tNFwy6F7MK-46" value="" style="endArrow=none;html=1;rounded=0;strokeWidth=9;" parent="1" edge="1">
          <mxGeometry width="50" height="50" relative="1" as="geometry">
            <mxPoint x="120" y="460" as="sourcePoint" />
            <mxPoint x="280" y="460" as="targetPoint" />
          </mxGeometry>
        </mxCell>
        <mxCell id="ipIM1DIU9-tNFwy6F7MK-47" value="" style="endArrow=none;html=1;rounded=0;strokeWidth=10;" parent="1" edge="1">
          <mxGeometry width="50" height="50" relative="1" as="geometry">
            <mxPoint x="560" y="460" as="sourcePoint" />
            <mxPoint x="720" y="460" as="targetPoint" />
          </mxGeometry>
        </mxCell>
        <mxCell id="ipIM1DIU9-tNFwy6F7MK-49" value="" style="shape=flexArrow;endArrow=classic;html=1;rounded=0;width=19.166666666666668;endSize=5.519444444444445;fillColor=#000000;" parent="1" edge="1">
          <mxGeometry width="50" height="50" relative="1" as="geometry">
            <mxPoint x="420" y="883" as="sourcePoint" />
            <mxPoint x="420" y="823" as="targetPoint" />
          </mxGeometry>
        </mxCell>
        <mxCell id="ipIM1DIU9-tNFwy6F7MK-50" value="" style="shape=flexArrow;endArrow=classic;html=1;rounded=0;width=19.166666666666668;endSize=5.519444444444445;fillColor=#000000;" parent="1" edge="1">
          <mxGeometry width="50" height="50" relative="1" as="geometry">
            <mxPoint x="117" y="570" as="sourcePoint" />
            <mxPoint x="177" y="570" as="targetPoint" />
          </mxGeometry>
        </mxCell>
        <mxCell id="ipIM1DIU9-tNFwy6F7MK-51" value="" style="shape=flexArrow;endArrow=classic;html=1;rounded=0;width=19.166666666666668;endSize=5.519444444444445;fillColor=#000000;" parent="1" edge="1">
          <mxGeometry width="50" height="50" relative="1" as="geometry">
            <mxPoint x="720" y="350" as="sourcePoint" />
            <mxPoint x="660" y="350" as="targetPoint" />
          </mxGeometry>
        </mxCell>
        <mxCell id="ipIM1DIU9-tNFwy6F7MK-52" value="&lt;font style=&quot;font-size: 24px;&quot;&gt;S.Principal&lt;/font&gt;" style="text;html=1;align=center;verticalAlign=middle;whiteSpace=wrap;rounded=0;" parent="1" vertex="1">
          <mxGeometry x="287" y="562" width="113" height="30" as="geometry" />
        </mxCell>
        <mxCell id="ipIM1DIU9-tNFwy6F7MK-54" value="&lt;font style=&quot;font-size: 24px;&quot;&gt;S.Secundario&lt;/font&gt;" style="text;html=1;align=center;verticalAlign=middle;whiteSpace=wrap;rounded=0;" parent="1" vertex="1">
          <mxGeometry x="389" y="633" width="60" height="30" as="geometry" />
        </mxCell>
        <mxCell id="ipIM1DIU9-tNFwy6F7MK-55" value="&lt;font style=&quot;font-size: 24px;&quot;&gt;S.Principal&lt;/font&gt;" style="text;html=1;align=center;verticalAlign=middle;whiteSpace=wrap;rounded=0;" parent="1" vertex="1">
          <mxGeometry x="437" y="332" width="113" height="30" as="geometry" />
        </mxCell>
        <mxCell id="ntR8DX2gExFmJv6KN81X-1" value="" style="rounded=0;whiteSpace=wrap;html=1;" vertex="1" parent="1">
          <mxGeometry x="344" y="750" width="156" height="25" as="geometry" />
        </mxCell>
        <mxCell id="ntR8DX2gExFmJv6KN81X-4" value="&lt;font style=&quot;font-size: 14px;&quot;&gt;Sensor calle secundaria&lt;/font&gt;" style="text;html=1;align=center;verticalAlign=middle;whiteSpace=wrap;rounded=0;" vertex="1" parent="1">
          <mxGeometry x="340" y="750" width="160" height="30" as="geometry" />
        </mxCell>
      </root>
    </mxGraphModel>
  </diagram>
</mxfile>
